<svg width="386" height="110" viewBox="0 0 386 110" fill="none" xmlns="http://www.w3.org/2000/svg">
<g filter="url(#filter0_d_76_106)">
<rect x="1" y="1" width="50" height="50" fill="white"/>
<rect x="51" y="51" width="50" height="50" fill="white"/>
<path d="M24.34 73.42H25.96V71.8H27.58V70.18H24.34V73.42ZM14.62 88V62.08H30.82L32.44 63.7H35.68V65.32L37.3 66.94V68.56L38.92 70.18V71.8H37.3V70.18L35.68 68.56V66.94L34.06 65.32H30.82V63.7H16.24V86.38H24.34V81.52L25.96 79.9H29.2V78.28H34.06L35.68 76.66V75.04L37.3 73.42V71.8L38.92 73.42L37.3 75.04V76.66L35.68 78.28V79.9H30.82L29.2 81.52H25.96V86.38L24.34 88H14.62ZM22.72 75.04V68.56H27.58L29.2 70.18V73.42H27.58L25.96 75.04H22.72Z" fill="white"/>
<path d="M84.06 12.08L85.68 13.7V15.32H84.06V13.7H66.24V36.38H67.86L66.24 38H64.62V12.08H84.06ZM85.68 18.56H84.06V15.32L85.68 16.94V18.56ZM84.06 18.56L85.68 20.18H74.34V21.8H84.06L85.68 23.42V25.04H84.06V23.42H74.34L72.72 21.8V18.56H84.06ZM85.68 28.28H84.06V25.04L85.68 26.66V28.28ZM84.06 28.28L85.68 29.9V31.52H72.72V28.28H84.06ZM71.1 38H67.86V36.38H72.72L71.1 38ZM72.72 38V36.38H85.68L84.06 38H72.72Z" fill="white"/>
<path d="M129 65V45H141V49H145V53H141V57H133V65H129ZM133 53H140.84V49H133V53ZM153 65V45H157V53H165V45H169V65H165V57H157V65H153ZM181 65V61H177V49H181V45H189V49H193V61H189V65H181ZM181 60.84H189V49.16H181V60.84ZM205 65V49H201V45H213V49H209V65H205ZM225 65V61H221V49H225V45H233V49H237V61H233V65H225ZM225 60.84H233V49.16H225V60.84ZM261 65V45H273V49H265V53H273V57H265V61H273V65H261ZM281 65V45H293V49H297V61H293V65H281ZM285 61H292.84V49H285V61ZM305 65V45H309V65H305ZM321 65V49H317V45H329V49H325V65H321ZM341 65V61H337V49H341V45H349V49H353V61H349V65H341ZM341 60.84H349V49.16H341V60.84ZM361 65V45H373V49H377V53H373V61H377V65H373V61H369V57H365V65H361ZM365 53H372.84V49H365V53Z" fill="white"/>
</g>
<defs>
<filter id="filter0_d_76_106" x="0" y="0" width="386" height="110" filterUnits="userSpaceOnUse" color-interpolation-filters="sRGB">
<feFlood flood-opacity="0" result="BackgroundImageFix"/>
<feColorMatrix in="SourceAlpha" type="matrix" values="0 0 0 0 0 0 0 0 0 0 0 0 0 0 0 0 0 0 127 0" result="hardAlpha"/>
<feOffset dx="4" dy="4"/>
<feGaussianBlur stdDeviation="2.5"/>
<feComposite in2="hardAlpha" operator="out"/>
<feColorMatrix type="matrix" values="0 0 0 0 0 0 0 0 0 0 0 0 0 0 0 0 0 0 0.25 0"/>
<feBlend mode="normal" in2="BackgroundImageFix" result="effect1_dropShadow_76_106"/>
<feBlend mode="normal" in="SourceGraphic" in2="effect1_dropShadow_76_106" result="shape"/>
</filter>
</defs>
</svg>
