<svg width="100" height="100" viewBox="0 0 100 100" fill="none" xmlns="http://www.w3.org/2000/svg">
<rect width="50" height="50" fill="#D62A55"/>
<rect x="50" y="50" width="50" height="50" fill="#D62A55"/>
<path d="M83.06 11.08L84.68 12.7V14.32H83.06V12.7H65.24V35.38H66.86L65.24 37H63.62V11.08H83.06ZM84.68 17.56H83.06V14.32L84.68 15.94V17.56ZM83.06 17.56L84.68 19.18H73.34V20.8H83.06L84.68 22.42V24.04H83.06V22.42H73.34L71.72 20.8V17.56H83.06ZM84.68 27.28H83.06V24.04L84.68 25.66V27.28ZM83.06 27.28L84.68 28.9V30.52H71.72V27.28H83.06ZM70.1 37H66.86V35.38H71.72L70.1 37ZM71.72 37V35.38H84.68L83.06 37H71.72Z" fill="#D62A55"/>
<path d="M23.34 72.42H24.96V70.8H26.58V69.18H23.34V72.42ZM13.62 87V61.08H29.82L31.44 62.7H34.68V64.32L36.3 65.94V67.56L37.92 69.18V70.8H36.3V69.18L34.68 67.56V65.94L33.06 64.32H29.82V62.7H15.24V85.38H23.34V80.52L24.96 78.9H28.2V77.28H33.06L34.68 75.66V74.04L36.3 72.42V70.8L37.92 72.42L36.3 74.04V75.66L34.68 77.28V78.9H29.82L28.2 80.52H24.96V85.38L23.34 87H13.62ZM21.72 74.04V67.56H26.58L28.2 69.18V72.42H26.58L24.96 74.04H21.72Z" fill="#D62A55"/>
</svg>
